# xmcd
#
# Track frame offsets: 
#        150
#        13766
#        29056
#        40288
#        56140
#        72600
#        87633
#        103066
#        118444
#        135660
#        153531
#        166785
#        180972
#        199638
#        214277
#        228156
#        242331
#        260293
#
# Disc length: 3651 seconds
#
# Revision: 1
# Processed by: cddbd v1.5.2PL0 Copyright (c) Steve Scherf et al.
# Submitted via: ExactAudioCopyFreeDBPlugin 1.0
#
DISCID=040e4112
DTITLE=The Civil Wars - Barton Hollow
DYEAR=2012
DGENRE=American Folk
TTITLE0=20 Years
TTITLE1=I've Got This Friend
TTITLE2=C'est la Mort
TTITLE3=To Whom It May Concern
TTITLE4=Poison and Wine
TTITLE5=My Father's Father
TTITLE6=Barton Hollow
TTITLE7=The Violet Hour
TTITLE8=Girl With The Red Balloon
TTITLE9=Falling
TTITLE10=Forget Me Not
TTITLE11=Birds of a Feather
TTITLE12=Billie Jean (Live)
TTITLE13=I Want You Back
TTITLE14=Dance Me to The End of Love
TTITLE15=You Are My Sunshine
TTITLE16=Goodbye Girl (Acoustic)
TTITLE17=Marionette (Demo)
EXTD=
EXTT0=
EXTT1=
EXTT2=
EXTT3=
EXTT4=
EXTT5=
EXTT6=
EXTT7=
EXTT8=
EXTT9=
EXTT10=
EXTT11=
EXTT12=
EXTT13=
EXTT14=
EXTT15=
EXTT16=
EXTT17=
PLAYORDER=
